<?xml version="1.0" standalone="no"?>
<!DOCTYPE svg PUBLIC "-//W3C//DTD SVG 20010904//EN"
 "http://www.w3.org/TR/2001/REC-SVG-20010904/DTD/svg10.dtd">
<svg version="1.0" xmlns="http://www.w3.org/2000/svg"
 width="300.000000pt" height="300.000000pt" viewBox="0 0 300.000000 300.000000"
 preserveAspectRatio="xMidYMid meet">
<metadata>
Created by potrace 1.10, written by Peter Selinger 2001-2011
</metadata>
<g transform="translate(0.000000,300.000000) scale(0.100000,-0.100000)"
fill="#F97316" stroke="none">
<path d="M1255 1935 c-49 -29 -117 -71 -150 -92 l-60 -38 -3 -301 c-2 -277 -1
-302 15 -316 19 -16 279 -168 288 -168 3 0 5 73 5 163 l0 163 -32 17 c-18 9
-58 31 -88 49 -30 18 -74 44 -98 58 -23 14 -42 28 -42 32 0 6 45 35 110 71 19
11 61 35 93 54 l57 34 0 165 c0 90 -1 164 -2 163 -2 0 -43 -24 -93 -54z m64
-131 c2 -98 -1 -119 -15 -135 -9 -10 -21 -19 -25 -19 -4 0 -49 -25 -99 -55
-50 -31 -95 -53 -101 -50 -5 4 -9 53 -7 118 1 96 5 115 22 135 11 12 23 22 27
22 4 0 48 24 96 54 48 29 91 52 94 50 3 -1 7 -55 8 -120z m-188 -362 c13 -10
36 -23 50 -29 14 -6 53 -41 85 -77 l58 -65 -3 -88 c-1 -48 -6 -92 -11 -97 -5
-5 -31 5 -59 23 -28 17 -53 31 -56 31 -15 0 -115 73 -119 87 -3 10 -5 66 -5
126 2 94 4 107 19 107 10 0 28 -8 41 -18z"/>
<path d="M1650 1821 l0 -159 33 -20 c163 -96 227 -136 227 -142 0 -4 -10 -12
-22 -18 -13 -7 -48 -26 -78 -44 -31 -18 -79 -46 -108 -63 l-52 -30 0 -162 c0
-90 3 -163 6 -163 9 0 267 151 287 168 15 14 17 42 17 314 l0 298 -37 26 c-58
39 -256 154 -265 154 -4 0 -8 -72 -8 -159z m109 69 c31 -17 81 -47 111 -68
l55 -37 3 -127 3 -126 -63 31 c-39 19 -88 56 -128 97 l-65 65 3 85 c3 88 7
110 18 110 3 0 32 -14 63 -30z m170 -557 c-1 -62 -5 -116 -8 -120 -3 -5 -55
-37 -114 -72 -73 -43 -111 -61 -118 -54 -6 6 -9 56 -7 123 l3 114 63 43 c35
24 66 43 70 43 4 0 27 13 52 30 32 21 46 26 52 17 5 -7 8 -62 7 -124z"/>
<path d="M1520 1504 c0 -107 3 -194 6 -194 4 0 32 15 63 34 31 18 83 48 116
66 33 18 80 44 105 57 25 14 49 28 53 32 4 5 -18 21 -50 36 -32 16 -111 59
-175 96 l-118 67 0 -194z m95 105 c22 -12 63 -34 90 -48 60 -32 100 -59 94
-65 -2 -2 -40 -23 -84 -47 -44 -23 -93 -51 -110 -61 -54 -32 -55 -30 -55 112
0 145 0 144 65 109z"/>
<path d="M1385 1644 c-44 -25 -118 -66 -165 -91 -47 -25 -86 -47 -88 -48 -3
-3 48 -32 173 -100 28 -15 75 -43 106 -61 31 -19 61 -34 65 -34 5 0 9 86 9
190 0 120 -4 190 -10 190 -5 0 -46 -21 -90 -46z m65 -144 c0 -98 -3 -130 -12
-130 -7 1 -35 14 -63 30 -27 16 -72 40 -100 53 -27 13 -56 31 -63 40 -11 13
-10 18 10 29 13 7 32 18 43 25 11 7 27 15 35 19 8 3 40 19 70 35 30 16 61 29
68 29 9 0 12 -33 12 -130z"/>
</g>
</svg>
